<svg width="250" height="274" viewBox="0 0 250 274" fill="none" xmlns="http://www.w3.org/2000/svg">
<path d="M31.6747 82.2319L126 26.1442L220.325 82.2319V194.769L126 250.856L31.6747 194.769V82.2319Z" stroke="url(#paint0_linear)" stroke-width="14"/>
<path d="M87.9465 208.301L84.6991 70.3817L202.285 142.534L87.9465 208.301Z" stroke="url(#paint1_linear)" stroke-width="13"/>
<mask id="path-3-inside-1" fill="white">
<ellipse cx="125.973" cy="243.447" rx="29.9736" ry="30.4468"/>
</mask>
<ellipse cx="125.973" cy="243.447" rx="29.9736" ry="30.4468" fill="#61DAFB"/>
<path d="M124.947 243.447C124.947 243.497 124.942 243.456 124.973 243.382C124.996 243.327 125.028 243.277 125.076 243.228C125.125 243.179 125.225 243.095 125.403 243.019C125.603 242.933 125.818 242.894 125.973 242.894V304.894C160.104 304.894 186.947 276.924 186.947 243.447H124.947ZM125.973 242.894C126.128 242.894 126.343 242.933 126.543 243.019C126.722 243.095 126.822 243.179 126.87 243.228C126.918 243.277 126.95 243.327 126.973 243.382C127.004 243.456 127 243.497 127 243.447H64.9996C64.9996 276.924 91.8424 304.894 125.973 304.894V242.894ZM127 243.447C127 243.397 127.004 243.438 126.973 243.512C126.95 243.567 126.918 243.617 126.87 243.666C126.822 243.715 126.722 243.799 126.543 243.875C126.343 243.961 126.128 244 125.973 244V182C91.8424 182 64.9996 209.971 64.9996 243.447H127ZM125.973 244C125.818 244 125.603 243.961 125.403 243.875C125.225 243.799 125.125 243.715 125.076 243.666C125.028 243.617 124.996 243.567 124.973 243.512C124.942 243.438 124.947 243.397 124.947 243.447H186.947C186.947 209.971 160.104 182 125.973 182V244Z" fill="url(#paint2_linear)" mask="url(#path-3-inside-1)"/>
<mask id="path-5-inside-2" fill="white">
<ellipse cx="35.9732" cy="193.447" rx="29.9736" ry="30.4468"/>
</mask>
<ellipse cx="35.9732" cy="193.447" rx="29.9736" ry="30.4468" fill="#61DAFB"/>
<path d="M34.9468 193.447C34.9468 193.497 34.9421 193.456 34.9731 193.382C34.9961 193.327 35.0285 193.277 35.0764 193.228C35.1246 193.179 35.2249 193.095 35.403 193.019C35.6033 192.933 35.8182 192.894 35.9732 192.894V254.894C70.104 254.894 96.9468 226.924 96.9468 193.447H34.9468ZM35.9732 192.894C36.1282 192.894 36.3431 192.933 36.5434 193.019C36.7215 193.095 36.8219 193.179 36.87 193.228C36.918 193.277 36.9503 193.327 36.9733 193.382C37.0043 193.456 36.9996 193.497 36.9996 193.447H-25.0004C-25.0004 226.924 1.8424 254.894 35.9732 254.894V192.894ZM36.9996 193.447C36.9996 193.397 37.0043 193.438 36.9733 193.512C36.9503 193.567 36.918 193.617 36.87 193.666C36.8219 193.715 36.7215 193.799 36.5434 193.875C36.3431 193.961 36.1282 194 35.9732 194V132C1.8424 132 -25.0004 159.97 -25.0004 193.447H36.9996ZM35.9732 194C35.8182 194 35.6033 193.961 35.403 193.875C35.2249 193.799 35.1246 193.715 35.0764 193.666C35.0285 193.617 34.9961 193.567 34.9731 193.512C34.9421 193.438 34.9468 193.397 34.9468 193.447H96.9468C96.9468 159.97 70.104 132 35.9732 132V194Z" fill="url(#paint3_linear)" mask="url(#path-5-inside-2)"/>
<mask id="path-7-inside-3" fill="white">
<ellipse cx="35.9732" cy="84.447" rx="29.9736" ry="30.4468"/>
</mask>
<ellipse cx="35.9732" cy="84.447" rx="29.9736" ry="30.4468" fill="#61DAFB"/>
<path d="M34.9468 84.447C34.9468 84.497 34.9421 84.4564 34.9731 84.3819C34.9961 84.3268 35.0285 84.2769 35.0764 84.2282C35.1246 84.1793 35.2249 84.0952 35.403 84.0187C35.6033 83.9326 35.8182 83.8938 35.9732 83.8938V145.894C70.104 145.894 96.9468 117.924 96.9468 84.447H34.9468ZM35.9732 83.8938C36.1282 83.8938 36.3431 83.9326 36.5434 84.0187C36.7215 84.0952 36.8219 84.1793 36.87 84.2282C36.918 84.2769 36.9503 84.3268 36.9733 84.3819C37.0043 84.4564 36.9996 84.497 36.9996 84.447H-25.0004C-25.0004 117.924 1.8424 145.894 35.9732 145.894V83.8938ZM36.9996 84.447C36.9996 84.397 37.0043 84.4376 36.9733 84.5121C36.9503 84.5672 36.918 84.6171 36.87 84.6658C36.8219 84.7147 36.7215 84.7988 36.5434 84.8753C36.3431 84.9614 36.1282 85.0002 35.9732 85.0002V23.0002C1.8424 23.0002 -25.0004 50.9705 -25.0004 84.447H36.9996ZM35.9732 85.0002C35.8182 85.0002 35.6033 84.9614 35.403 84.8753C35.2249 84.7988 35.1246 84.7147 35.0764 84.6658C35.0285 84.6171 34.9961 84.5672 34.9731 84.5121C34.9421 84.4376 34.9468 84.397 34.9468 84.447H96.9468C96.9468 50.9705 70.104 23.0002 35.9732 23.0002V85.0002Z" fill="url(#paint4_linear)" mask="url(#path-7-inside-3)"/>
<mask id="path-9-inside-4" fill="white">
<ellipse cx="219.973" cy="200.447" rx="29.9736" ry="30.4468"/>
</mask>
<ellipse cx="219.973" cy="200.447" rx="29.9736" ry="30.4468" fill="#61DAFB"/>
<path d="M218.947 200.447C218.947 200.497 218.942 200.456 218.973 200.382C218.996 200.327 219.028 200.277 219.076 200.228C219.125 200.179 219.225 200.095 219.403 200.019C219.603 199.933 219.818 199.894 219.973 199.894V261.894C254.104 261.894 280.947 233.924 280.947 200.447H218.947ZM219.973 199.894C220.128 199.894 220.343 199.933 220.543 200.019C220.722 200.095 220.822 200.179 220.87 200.228C220.918 200.277 220.95 200.327 220.973 200.382C221.004 200.456 221 200.497 221 200.447H159C159 233.924 185.842 261.894 219.973 261.894V199.894ZM221 200.447C221 200.397 221.004 200.438 220.973 200.512C220.95 200.567 220.918 200.617 220.87 200.666C220.822 200.715 220.722 200.799 220.543 200.875C220.343 200.961 220.128 201 219.973 201V139C185.842 139 159 166.97 159 200.447H221ZM219.973 201C219.818 201 219.603 200.961 219.403 200.875C219.225 200.799 219.125 200.715 219.076 200.666C219.028 200.617 218.996 200.567 218.973 200.512C218.942 200.438 218.947 200.397 218.947 200.447H280.947C280.947 166.97 254.104 139 219.973 139V201Z" fill="url(#paint5_linear)" mask="url(#path-9-inside-4)"/>
<mask id="path-11-inside-5" fill="white">
<ellipse cx="215.973" cy="84.447" rx="29.9736" ry="30.4468"/>
</mask>
<ellipse cx="215.973" cy="84.447" rx="29.9736" ry="30.4468" fill="#61DAFB"/>
<path d="M214.947 84.447C214.947 84.497 214.942 84.4564 214.973 84.3819C214.996 84.3268 215.028 84.2769 215.076 84.2282C215.125 84.1793 215.225 84.0952 215.403 84.0187C215.603 83.9326 215.818 83.8938 215.973 83.8938V145.894C250.104 145.894 276.947 117.924 276.947 84.447H214.947ZM215.973 83.8938C216.128 83.8938 216.343 83.9326 216.543 84.0187C216.722 84.0952 216.822 84.1793 216.87 84.2282C216.918 84.2769 216.95 84.3268 216.973 84.3819C217.004 84.4564 217 84.497 217 84.447H155C155 117.924 181.842 145.894 215.973 145.894V83.8938ZM217 84.447C217 84.397 217.004 84.4376 216.973 84.5121C216.95 84.5672 216.918 84.6171 216.87 84.6658C216.822 84.7147 216.722 84.7988 216.543 84.8753C216.343 84.9614 216.128 85.0002 215.973 85.0002V23.0002C181.842 23.0002 155 50.9705 155 84.447H217ZM215.973 85.0002C215.818 85.0002 215.603 84.9614 215.403 84.8753C215.225 84.7988 215.125 84.7147 215.076 84.6658C215.028 84.6171 214.996 84.5672 214.973 84.5121C214.942 84.4376 214.947 84.397 214.947 84.447H276.947C276.947 50.9705 250.104 23.0002 215.973 23.0002V85.0002Z" fill="url(#paint6_linear)" mask="url(#path-11-inside-5)"/>
<mask id="path-13-inside-6" fill="white">
<ellipse cx="125.973" cy="30.447" rx="29.9736" ry="30.4468"/>
</mask>
<ellipse cx="125.973" cy="30.447" rx="29.9736" ry="30.4468" fill="#61DAFB"/>
<path d="M124.947 30.447C124.947 30.497 124.942 30.4564 124.973 30.3819C124.996 30.3268 125.028 30.2769 125.076 30.2282C125.125 30.1793 125.225 30.0952 125.403 30.0187C125.603 29.9326 125.818 29.8938 125.973 29.8938V91.8938C160.104 91.8938 186.947 63.9235 186.947 30.447H124.947ZM125.973 29.8938C126.128 29.8938 126.343 29.9326 126.543 30.0187C126.722 30.0952 126.822 30.1793 126.87 30.2282C126.918 30.2769 126.95 30.3268 126.973 30.3819C127.004 30.4564 127 30.497 127 30.447H64.9996C64.9996 63.9235 91.8424 91.8938 125.973 91.8938V29.8938ZM127 30.447C127 30.397 127.004 30.4376 126.973 30.5121C126.95 30.5672 126.918 30.6171 126.87 30.6658C126.822 30.7147 126.722 30.7988 126.543 30.8753C126.343 30.9614 126.128 31.0002 125.973 31.0002V-30.9998C91.8424 -30.9998 64.9996 -3.02953 64.9996 30.447H127ZM125.973 31.0002C125.818 31.0002 125.603 30.9614 125.403 30.8753C125.225 30.7988 125.125 30.7147 125.076 30.6658C125.028 30.6171 124.996 30.5672 124.973 30.5121C124.942 30.4376 124.947 30.397 124.947 30.447H186.947C186.947 -3.02953 160.104 -30.9998 125.973 -30.9998V31.0002Z" fill="url(#paint7_linear)" mask="url(#path-13-inside-6)"/>
<defs>
<linearGradient id="paint0_linear" x1="126" y1="18.0002" x2="126" y2="259" gradientUnits="userSpaceOnUse">
<stop stop-color="#653CDC"/>
<stop offset="1" stop-color="#61DAFB" stop-opacity="0"/>
</linearGradient>
<linearGradient id="paint1_linear" x1="77.9198" y1="58.5956" x2="171.835" y2="221.871" gradientUnits="userSpaceOnUse">
<stop stop-color="#653CDC"/>
<stop offset="1" stop-color="#61DAFB" stop-opacity="0"/>
</linearGradient>
<linearGradient id="paint2_linear" x1="125.973" y1="213" x2="125.973" y2="273.894" gradientUnits="userSpaceOnUse">
<stop stop-color="#653CDC"/>
<stop offset="1" stop-color="#61DAFB" stop-opacity="0"/>
</linearGradient>
<linearGradient id="paint3_linear" x1="35.9732" y1="163" x2="35.9732" y2="223.894" gradientUnits="userSpaceOnUse">
<stop stop-color="#653CDC"/>
<stop offset="1" stop-color="#61DAFB" stop-opacity="0"/>
</linearGradient>
<linearGradient id="paint4_linear" x1="35.9732" y1="54.0002" x2="35.9732" y2="114.894" gradientUnits="userSpaceOnUse">
<stop stop-color="#653CDC"/>
<stop offset="1" stop-color="#61DAFB" stop-opacity="0"/>
</linearGradient>
<linearGradient id="paint5_linear" x1="219.973" y1="170" x2="219.973" y2="230.894" gradientUnits="userSpaceOnUse">
<stop stop-color="#653CDC"/>
<stop offset="1" stop-color="#61DAFB" stop-opacity="0"/>
</linearGradient>
<linearGradient id="paint6_linear" x1="215.973" y1="54.0002" x2="215.973" y2="114.894" gradientUnits="userSpaceOnUse">
<stop stop-color="#653CDC"/>
<stop offset="1" stop-color="#61DAFB" stop-opacity="0"/>
</linearGradient>
<linearGradient id="paint7_linear" x1="125.973" y1="0.000183105" x2="125.973" y2="60.8938" gradientUnits="userSpaceOnUse">
<stop stop-color="#653CDC"/>
<stop offset="1" stop-color="#61DAFB" stop-opacity="0"/>
</linearGradient>
</defs>
</svg>
